<svg width="360" height="171" viewBox="0 0 360 171" fill="none" xmlns="http://www.w3.org/2000/svg">
<path d="M322.5 111.161C319.321 119.158 310.469 124.585 296.921 127.434C283.396 130.279 265.328 130.521 243.967 128.274C201.25 123.779 145.479 109.34 86.7875 86.011C28.0957 62.6822 -22.3698 34.8945 -56.5155 8.83809C-73.5911 -4.19232 -86.5619 -16.772 -94.4438 -28.1257C-102.339 -39.4983 -105.05 -49.5216 -101.871 -57.5184C-98.6929 -65.5151 -89.8406 -70.9422 -76.2925 -73.7916C-62.7671 -76.6362 -44.6996 -76.8789 -23.338 -74.6312C19.378 -70.1366 75.1492 -55.6973 133.841 -32.3684C192.533 -9.03957 242.998 18.7481 277.144 44.8045C294.22 57.8349 307.19 70.4147 315.072 81.7683C322.967 93.141 325.678 103.164 322.5 111.161Z" stroke="white"/>
<path d="M346.209 51.5057C343.03 59.5024 334.178 64.9295 320.63 67.7789C307.105 70.6236 289.037 70.8662 267.675 68.6185C224.959 64.124 169.188 49.6846 110.496 26.3558C51.8047 3.02693 1.33915 -24.7608 -32.8065 -50.8172C-49.8821 -63.8476 -62.8529 -76.4273 -70.7348 -87.7809C-78.6299 -99.1536 -81.341 -109.177 -78.1625 -117.174C-74.9839 -125.17 -66.1316 -130.597 -52.5835 -133.447C-39.0581 -136.291 -20.9907 -136.534 0.370944 -134.286C43.087 -129.792 98.8582 -115.353 157.55 -92.0237C216.242 -68.6948 266.707 -40.9072 300.853 -14.8507C317.929 -1.82034 330.899 10.7594 338.781 22.113C346.676 33.4857 349.387 43.509 346.209 51.5057Z" stroke="white"/>
</svg>
