<svg width="128" height="32" viewBox="0 0 128 32" fill="none" xmlns="http://www.w3.org/2000/svg">
<g clip-path="url(#clip0_370_13527)">
<path d="M0 0H128.003V32H0V0Z" fill="#E73331"/>
<path d="M14.5239 10.0137H8.05103L9.47414 4.32471H28.6632L27.2602 10.0137H20.9537L16.7016 26.8774H10.3119L14.5239 10.0137Z" fill="white"/>
<path d="M31.2827 4.32471H50.3082L48.8908 10.0137H36.0599L35.2421 13.1198H46.5496L45.1781 18.1395H33.9826L33.2538 21.2028H46.0848L44.7391 26.8975L25.5959 26.8946L31.2827 4.32471Z" fill="white"/>
<path d="M108.068 4.32471H114.366L110.211 21.2028H119.43L118.004 26.9003H102.461L108.068 4.32471Z" fill="white"/>
<path d="M93.7822 26.8774L99.3944 4.32471H105.876L100.258 26.8546L93.7822 26.8774Z" fill="white"/>
<path fill-rule="evenodd" clip-rule="evenodd" d="M57.9289 9.77068L57.1571 12.9169H62.6085C64.1607 12.9169 64.6169 12.2419 64.7432 11.4325C64.8522 10.5429 64.2095 9.78212 63.5295 9.78212L57.9289 9.77068ZM66.8979 4.33629C67.6269 4.33015 68.3488 4.4802 69.0145 4.77627C69.6803 5.07235 70.2745 5.50755 70.757 6.05241C73.4798 9.01845 71.5173 14.7303 66.6053 15.1078C66.4762 15.1078 70.7627 15.6656 69.5777 20.9913C68.9695 23.8143 66.2782 26.8862 62.4048 26.8862H47.2153L52.8361 4.31055H66.8951L66.8979 4.33629ZM55.8831 18.0653L55.1142 21.2115H60.5656C62.115 21.2115 62.5741 20.5365 62.7003 19.7271C62.8093 18.8375 62.1638 18.0767 61.4838 18.0767L55.8831 18.0653Z" fill="white"/>
<path fill-rule="evenodd" clip-rule="evenodd" d="M78.495 15.4137C77.4535 19.0233 78.1736 21.4201 81.7343 21.4201C84.4543 21.4201 86.9705 20.5993 88.2273 15.4509C89.0191 12.073 88.5285 9.73048 85.0712 9.7648C83.5935 9.81056 79.941 9.51596 78.495 15.4166V15.4137ZM86.6492 3.64968C95.0903 3.50667 96.281 10.3168 94.5481 16.0687C92.1638 25.6361 87.5358 27.4952 80.2653 27.4952C72.1742 27.4952 71.0552 21.8234 71.9791 15.6397C74.3433 4.61929 80.2165 3.70116 85.5388 3.64968H86.6492Z" fill="white"/>
</g>
<defs>
<clipPath id="clip0_370_13527">
<rect width="128" height="32" fill="white"/>
</clipPath>
</defs>
</svg>
