<svg xmlns="http://www.w3.org/2000/svg" xmlns:xlink="http://www.w3.org/1999/xlink">
    <defs>
        <clipPath id="clip0_405_520">
            <rect width="24" height="24" fill="white" transform="translate(10 10)"/>
        </clipPath>

        <clipPath id="clip0_405_252">
            <rect width="24" height="24" fill="white" transform="translate(10 10)"/>
        </clipPath>
    </defs>
    <symbol id="icon-arrow-2" viewBox="0 0 9 18">
        <g fill="none">
            <path d="M8.08984 16.92L1.56984 10.4C0.799843 9.62999 0.799843 8.36999 1.56984 7.59999L8.08984 1.07999"
                  stroke="currentColor" stroke-width="1.5" stroke-miterlimit="10" stroke-linecap="round"
                  stroke-linejoin="round"/>
        </g>
    </symbol>
    <symbol id="icon-arrow-slider" viewBox="0 0 7 12">
        <g fill="none">
            <path fill-rule="evenodd" clip-rule="evenodd"
                  d="M0.441468 0.499389C0.717905 0.190916 1.19207 0.164947 1.50054 0.441384L6.09371 4.55755C6.96877 5.34174 6.96877 6.65811 6.09371 7.4423L1.50054 11.5585C1.19207 11.8349 0.717905 11.8089 0.441468 11.5005C0.165031 11.192 0.191 10.7178 0.499473 10.4414L5.09264 6.32522C5.30246 6.13719 5.30246 5.86266 5.09264 5.67462L0.499473 1.55846C0.191 1.28202 0.165031 0.807861 0.441468 0.499389Z"
                  fill="currentColor"/>
        </g>
    </symbol>
    <symbol id="icon-arrow" viewBox="0 0 12 7">
        <g fill="none">
            <path d="M11 1L6.88384 5.59317C6.39773 6.13561 5.60227 6.13561 5.11616 5.59317L1 1" stroke="#222222"
                  stroke-width="2" stroke-miterlimit="10" stroke-linecap="round" stroke-linejoin="round"/>
        </g>
    </symbol>
    <symbol id="icon-arrow3" viewBox="0 0 7 12">
        <g fill="none">
            <path d="M1 11L5.59317 6.88384C6.13561 6.39773 6.13561 5.60227 5.59317 5.11616L1 1" stroke="#888888"
                  stroke-width="1.5" stroke-miterlimit="10" stroke-linecap="round" stroke-linejoin="round"/>
        </g>
    </symbol>
    <symbol id="icon-bag-happy" viewBox="0 0 73 73">
        <g fill="none">
            <path opacity="0.2"
                  d="M58.5216 16.9725H57.3049L47.0241 6.69162C46.2028 5.87037 44.8645 5.87037 44.0128 6.69162C43.1916 7.51287 43.1916 8.8512 44.0128 9.70287L51.2824 16.9725H21.7174L28.987 9.70287C29.8083 8.88162 29.8083 7.54329 28.987 6.69162C28.1658 5.87037 26.8274 5.87037 25.9757 6.69162L15.7253 16.9725H14.5087C11.7712 16.9725 6.08325 16.9725 6.08325 24.7591C6.08325 27.7095 6.69158 29.6562 7.96908 30.9337C8.69908 31.6941 9.58117 32.0895 10.5241 32.3025C11.4062 32.5154 12.3491 32.5458 13.2616 32.5458H59.7382C60.6812 32.5458 61.5633 32.485 62.4149 32.3025C64.9699 31.6941 66.9166 29.8691 66.9166 24.7591C66.9166 16.9725 61.2287 16.9725 58.5216 16.9725Z"
                  fill="#004798"/>
            <path d="M59.7687 32.5458H13.2617C12.3796 32.5458 11.4063 32.5154 10.5242 32.2721L14.3567 55.6625C15.2083 60.8942 17.4896 66.9167 27.6183 66.9167H44.6821C54.9325 66.9167 56.7575 61.7763 57.8525 56.0275L62.4454 32.2721C61.5938 32.485 60.6813 32.5458 59.7687 32.5458ZM36.5 56.2708C29.3825 56.2708 23.5729 50.4613 23.5729 43.3438C23.5729 42.0967 24.6071 41.0625 25.8542 41.0625C27.1013 41.0625 28.1354 42.0967 28.1354 43.3438C28.1354 47.9671 31.8767 51.7083 36.5 51.7083C41.1233 51.7083 44.8646 47.9671 44.8646 43.3438C44.8646 42.0967 45.8988 41.0625 47.1458 41.0625C48.3929 41.0625 49.4271 42.0967 49.4271 43.3438C49.4271 50.4613 43.6175 56.2708 36.5 56.2708Z"
                  fill="#004798"/>
        </g>
    </symbol>
    <symbol id="icon-bag" viewBox="0 0 24 24">
        <g fill="none">
            <path d="M8.5 14.25C8.5 16.17 10.08 17.75 12 17.75C13.92 17.75 15.5 16.17 15.5 14.25" stroke="#292D32"
                  stroke-width="1.5" stroke-miterlimit="10" stroke-linecap="round" stroke-linejoin="round"/>
            <path d="M8.80994 2L5.18994 5.63" stroke="#292D32" stroke-width="1.5" stroke-miterlimit="10"
                  stroke-linecap="round" stroke-linejoin="round"/>
            <path d="M15.1899 2L18.8099 5.63" stroke="#292D32" stroke-width="1.5" stroke-miterlimit="10"
                  stroke-linecap="round" stroke-linejoin="round"/>
            <path d="M2 7.8501C2 6.0001 2.99 5.8501 4.22 5.8501H19.78C21.01 5.8501 22 6.0001 22 7.8501C22 10.0001 21.01 9.8501 19.78 9.8501H4.22C2.99 9.8501 2 10.0001 2 7.8501Z"
                  stroke="#292D32" stroke-width="1.5"/>
            <path d="M3.5 10L4.91 18.64C5.23 20.58 6 22 8.86 22H14.89C18 22 18.46 20.64 18.82 18.76L20.5 10"
                  stroke="#292D32" stroke-width="1.5" stroke-linecap="round"/>
        </g>
    </symbol>
    <symbol id="icon-bell" viewBox="0 0 24 24">
        <g fill="none">
            <path d="M18.4834 15.006L18.4834 15.006L18.486 15.0104C18.7166 15.3887 18.7551 15.8268 18.6042 16.2274C18.4475 16.6432 18.1311 16.9474 17.7278 17.08L17.7278 17.08L17.7222 17.0818C15.8884 17.6962 13.956 18 12.0199 18C10.084 18 8.15319 17.6963 6.32202 17.0733L6.32001 17.0726C5.8259 16.9057 5.51377 16.5845 5.39137 16.2428L5.3914 16.2428L5.38852 16.2349C5.25441 15.8702 5.28525 15.4449 5.54722 15.0049L6.55562 13.3375L6.55973 13.3307L6.56372 13.3239C6.73007 13.0387 6.85801 12.6811 6.94366 12.3661C7.02912 12.0518 7.09994 11.6789 7.09994 11.35V8.82C7.09994 6.89807 8.21817 5.22475 9.84532 4.41534L10.122 4.27773L10.2728 4.00803C10.6185 3.38967 11.2672 3 11.9899 3C12.7312 3 13.3577 3.37747 13.6994 3.98206L13.8545 4.25659L14.1391 4.39244C15.7963 5.18356 16.9399 6.87165 16.9399 8.82V11.35C16.9399 11.6789 17.0108 12.0517 17.0959 12.3662C17.1817 12.6832 17.3084 13.0385 17.4703 13.3236L17.4767 13.3349L17.4834 13.346L18.4834 15.006Z"
                  stroke="currentColor" stroke-width="2"/>
            <path d="M14.8299 20.01C14.4099 21.17 13.2999 22 11.9999 22C11.2099 22 10.4299 21.68 9.87993 21.11C9.55993 20.81 9.31993 20.41 9.17993 20C9.30993 20.02 9.43993 20.03 9.57993 20.05C9.80993 20.08 10.0499 20.11 10.2899 20.13C10.8599 20.18 11.4399 20.21 12.0199 20.21C12.5899 20.21 13.1599 20.18 13.7199 20.13C13.9299 20.11 14.1399 20.1 14.3399 20.07C14.4999 20.05 14.6599 20.03 14.8299 20.01Z"
                  fill="currentColor"/>
        </g>
    </symbol>
    <symbol id="icon-card" viewBox="0 0 44 44">
        <g fill="none">
            <path d="M40.3346 13.8415C40.3346 15.0515 39.3446 16.0415 38.1346 16.0415H5.86797C4.65797 16.0415 3.66797 15.0515 3.66797 13.8415V13.8232C3.66797 9.62482 7.05964 6.23315 11.258 6.23315H32.7263C36.9246 6.23315 40.3346 9.64316 40.3346 13.8415Z"
                  fill="white"/>
            <path d="M3.66797 20.992V30.177C3.66797 34.3753 7.05964 37.767 11.258 37.767H32.7263C36.9246 37.767 40.3346 34.357 40.3346 30.1587V20.992C40.3346 19.782 39.3446 18.792 38.1346 18.792H5.86797C4.65797 18.792 3.66797 19.782 3.66797 20.992ZM14.668 31.6253H11.0013C10.2496 31.6253 9.6263 31.002 9.6263 30.2503C9.6263 29.4987 10.2496 28.8753 11.0013 28.8753H14.668C15.4196 28.8753 16.043 29.4987 16.043 30.2503C16.043 31.002 15.4196 31.6253 14.668 31.6253ZM26.5846 31.6253H19.2513C18.4996 31.6253 17.8763 31.002 17.8763 30.2503C17.8763 29.4987 18.4996 28.8753 19.2513 28.8753H26.5846C27.3363 28.8753 27.9596 29.4987 27.9596 30.2503C27.9596 31.002 27.3363 31.6253 26.5846 31.6253Z"
                  fill="white"/>
        </g>
    </symbol>
    <symbol id="icon-checkbox" viewBox="0 0 20 20">
        <g fill="none">
            <path fill-rule="evenodd" clip-rule="evenodd"
                  d="M2.31356 2.31369C3.53036 1.09689 5.31787 0.666626 7.49984 0.666626H12.4998C14.6818 0.666626 16.4693 1.09689 17.6861 2.31369C18.9029 3.53048 19.3332 5.318 19.3332 7.49996V12.5C19.3332 14.6819 18.9029 16.4694 17.6861 17.6862C16.4693 18.903 14.6818 19.3333 12.4998 19.3333H7.49984C5.31787 19.3333 3.53036 18.903 2.31356 17.6862C1.09677 16.4694 0.666504 14.6819 0.666504 12.5V7.49996C0.666504 5.318 1.09677 3.53048 2.31356 2.31369ZM3.72778 3.7279C3.06957 4.38611 2.6665 5.51525 2.6665 7.49996V12.5C2.6665 14.4847 3.06957 15.6138 3.72778 16.272C4.38599 16.9302 5.51513 17.3333 7.49984 17.3333H12.4998C14.4845 17.3333 15.6137 16.9302 16.2719 16.272C16.9301 15.6138 17.3332 14.4847 17.3332 12.5V7.49996C17.3332 5.51525 16.9301 4.38611 16.2719 3.7279C15.6137 3.06969 14.4845 2.66663 12.4998 2.66663H7.49984C5.51513 2.66663 4.38599 3.06969 3.72778 3.7279Z"
                  fill="currentColor"/>
        </g>
    </symbol>
    <symbol id="icon-close-small" viewBox="0 0 20 20">
        <g fill="none">
            <path fill-rule="evenodd" clip-rule="evenodd"
                  d="M10 0C4.47715 0 0 4.47715 0 10C0 15.5228 4.47715 20 10 20C15.5228 20 20 15.5228 20 10C20 4.47715 15.5228 0 10 0ZM7.70711 6.29289C7.31658 5.90237 6.68342 5.90237 6.29289 6.29289C5.90237 6.68342 5.90237 7.31658 6.29289 7.70711L8.58579 10L6.29289 12.2929C5.90237 12.6834 5.90237 13.3166 6.29289 13.7071C6.68342 14.0976 7.31658 14.0976 7.70711 13.7071L10 11.4142L12.2929 13.7071C12.6834 14.0976 13.3166 14.0976 13.7071 13.7071C14.0976 13.3166 14.0976 12.6834 13.7071 12.2929L11.4142 10L13.7071 7.70711C14.0976 7.31658 14.0976 6.68342 13.7071 6.29289C13.3166 5.90237 12.6834 5.90237 12.2929 6.29289L10 8.58579L7.70711 6.29289Z"
                  fill="#BBBBBB"/>
        </g>
    </symbol>
    <symbol id="icon-close" viewBox="0 0 12 12">
        <g fill="none">
            <path d="M0.719271 10.4598C0.3875 10.7916 0.380729 11.3807 0.726042 11.726C1.07812 12.0713 1.66719 12.0645 1.99219 11.7395L6.00052 7.73118L10.0021 11.7327C10.3406 12.0713 10.9229 12.0713 11.2682 11.726C11.6135 11.3739 11.6135 10.7984 11.275 10.4598L7.27344 6.45827L11.275 2.44993C11.6135 2.11139 11.6203 1.5291 11.2682 1.18379C10.9229 0.838475 10.3406 0.838475 10.0021 1.17702L6.00052 5.17858L1.99219 1.17702C1.66719 0.845246 1.07135 0.831704 0.726042 1.18379C0.380729 1.5291 0.3875 2.12493 0.719271 2.44993L4.72083 6.45827L0.719271 10.4598Z"
                  fill="currentColor"/>
        </g>
    </symbol>
    <symbol id="icon-close2" viewBox="0 0 12 12">
        <g fill="none">
            <g opacity="0.5">
                <path d="M3.5 3.5L8.5 8.5M3.5 8.5L8.5 3.5" stroke="currentColor" stroke-width="1.5"
                      stroke-linecap="round" stroke-linejoin="round"/>
            </g>
        </g>
    </symbol>
    <symbol id="icon-emoji" viewBox="0 0 44 44">
        <g fill="none">
            <path d="M21.9456 40.3337C32.0709 40.3337 40.279 32.1255 40.279 22.0003C40.279 11.8751 32.0709 3.66699 21.9456 3.66699C11.8204 3.66699 3.6123 11.8751 3.6123 22.0003C3.6123 32.1255 11.8204 40.3337 21.9456 40.3337Z"
                  fill="#222222" stroke="#222222" stroke-width="2" stroke-linecap="round" stroke-linejoin="round"/>
            <path d="M33 22C33 24.9174 31.8411 27.7153 29.7782 29.7782C27.7153 31.8411 24.9174 33 22 33C19.0826 33 16.2847 31.8411 14.2218 29.7782C12.1589 27.7153 11 24.9174 11 22"
                  stroke="#D9D9D9" stroke-width="2" stroke-linecap="round"/>
            <path d="M18.5981 17.5C18.3348 17.9561 17.9561 18.3348 17.5 18.5981C17.0439 18.8614 16.5266 19 16 19C15.4734 19 14.9561 18.8614 14.5 18.5981C14.0439 18.3348 13.6652 17.9561 13.4019 17.5"
                  stroke="#D9D9D9" stroke-width="2" stroke-linecap="round"/>
            <path d="M30.5981 17.5C30.3348 17.9561 29.9561 18.3348 29.5 18.5981C29.0439 18.8614 28.5266 19 28 19C27.4734 19 26.9561 18.8614 26.5 18.5981C26.0439 18.3348 25.6652 17.9561 25.4019 17.5"
                  stroke="#D9D9D9" stroke-width="2" stroke-linecap="round"/>
        </g>
    </symbol>
    <symbol id="icon-emoji2" viewBox="0 0 32 32">
        <g fill="none">
            <path d="M15.9603 29.3334C23.3241 29.3334 29.2936 23.3639 29.2936 16.0001C29.2936 8.63629 23.3241 2.66675 15.9603 2.66675C8.59649 2.66675 2.62695 8.63629 2.62695 16.0001C2.62695 23.3639 8.59649 29.3334 15.9603 29.3334Z"
                  stroke="#222222" stroke-width="2" stroke-linecap="round" stroke-linejoin="round"/>
            <path d="M23.7273 15.9997C23.7273 18.0491 22.9131 20.0146 21.464 21.4637C20.0148 22.9129 18.0494 23.727 16 23.727C13.9506 23.727 11.9851 22.9129 10.536 21.4637C9.08683 20.0146 8.2727 18.0491 8.27271 15.9997"
                  stroke="#222222" stroke-width="2" stroke-linecap="round"/>
            <path d="M13.2897 12.5912C13.1221 12.8814 12.8812 13.1224 12.5909 13.29C12.3007 13.4575 11.9715 13.5457 11.6364 13.5457C11.3013 13.5457 10.9721 13.4575 10.6818 13.29C10.3916 13.1224 10.1506 12.8814 9.98306 12.5912"
                  stroke="#222222" stroke-width="2" stroke-linecap="round"/>
            <path d="M22.0171 12.5912C21.8496 12.8814 21.6086 13.1224 21.3183 13.29C21.0281 13.4575 20.6989 13.5457 20.3638 13.5457C20.0287 13.5457 19.6995 13.4575 19.4093 13.29C19.119 13.1224 18.878 12.8814 18.7105 12.5912"
                  stroke="#222222" stroke-width="2" stroke-linecap="round"/>
        </g>
    </symbol>
    <symbol id="icon-export" viewBox="0 0 20 20">
        <g fill="none">
            <path d="M7.76758 5.41654L9.90091 3.2832L12.0342 5.41654" stroke="white" stroke-width="1.5"
                  stroke-miterlimit="10" stroke-linecap="round" stroke-linejoin="round"/>
            <path d="M9.90039 11.8168V3.3418" stroke="white" stroke-width="1.5" stroke-miterlimit="10"
                  stroke-linecap="round" stroke-linejoin="round"/>
            <path d="M3.33398 10C3.33398 13.6833 5.83398 16.6667 10.0007 16.6667C14.1673 16.6667 16.6673 13.6833 16.6673 10"
                  stroke="white" stroke-width="1.5" stroke-miterlimit="10" stroke-linecap="round"
                  stroke-linejoin="round"/>
        </g>
    </symbol>
    <symbol id="icon-eye-close" viewBox="0 0 44 44">
        <g fill="none">
            <g clip-path="url(#clip0_405_520)">
                <path d="M22 16C25.79 16 29.17 18.13 30.82 21.5C30.23 22.72 29.4 23.77 28.41 24.62L29.82 26.03C31.21 24.8 32.31 23.26 33 21.5C31.27 17.11 27 14 22 14C20.73 14 19.51 14.2 18.36 14.57L20.01 16.22C20.66 16.09 21.32 16 22 16ZM20.93 17.14L23 19.21C23.57 19.46 24.03 19.92 24.28 20.49L26.35 22.56C26.43 22.22 26.49 21.86 26.49 21.49C26.5 19.01 24.48 17 22 17C21.63 17 21.28 17.05 20.93 17.14ZM12.01 13.87L14.69 16.55C13.06 17.83 11.77 19.53 11 21.5C12.73 25.89 17 29 22 29C23.52 29 24.98 28.71 26.32 28.18L29.74 31.6L31.15 30.19L13.42 12.45L12.01 13.87ZM19.51 21.37L22.12 23.98C22.08 23.99 22.04 24 22 24C20.62 24 19.5 22.88 19.5 21.5C19.5 21.45 19.51 21.42 19.51 21.37ZM16.11 17.97L17.86 19.72C17.63 20.27 17.5 20.87 17.5 21.5C17.5 23.98 19.52 26 22 26C22.63 26 23.23 25.87 23.77 25.64L24.75 26.62C23.87 26.86 22.95 27 22 27C18.21 27 14.83 24.87 13.18 21.5C13.88 20.07 14.9 18.89 16.11 17.97Z"
                      fill="#222222"/>
            </g>

        </g>
    </symbol>
    <symbol id="icon-eye" viewBox="0 0 44 44">
        <g fill="none">
            <g clip-path="url(#clip0_405_252)">
                <path d="M22 16C25.79 16 29.17 18.13 30.82 21.5C29.17 24.87 25.79 27 22 27C18.21 27 14.83 24.87 13.18 21.5C14.83 18.13 18.21 16 22 16ZM22 14C17 14 12.73 17.11 11 21.5C12.73 25.89 17 29 22 29C27 29 31.27 25.89 33 21.5C31.27 17.11 27 14 22 14ZM22 19C23.38 19 24.5 20.12 24.5 21.5C24.5 22.88 23.38 24 22 24C20.62 24 19.5 22.88 19.5 21.5C19.5 20.12 20.62 19 22 19ZM22 17C19.52 17 17.5 19.02 17.5 21.5C17.5 23.98 19.52 26 22 26C24.48 26 26.5 23.98 26.5 21.5C26.5 19.02 24.48 17 22 17Z"
                      fill="#222222"/>
            </g>

        </g>
    </symbol>
    <symbol id="icon-import" viewBox="0 0 20 20">
        <g fill="none">
            <path d="M7.76758 9.73438L9.90091 11.8677L12.0342 9.73438" stroke="white" stroke-width="1.5"
                  stroke-miterlimit="10" stroke-linecap="round" stroke-linejoin="round"/>
            <path d="M9.90039 3.33203V11.807" stroke="white" stroke-width="1.5" stroke-miterlimit="10"
                  stroke-linecap="round" stroke-linejoin="round"/>
            <path d="M16.6673 10.1504C16.6673 13.8337 14.1673 16.8171 10.0007 16.8171C5.83398 16.8171 3.33398 13.8337 3.33398 10.1504"
                  stroke="white" stroke-width="1.5" stroke-miterlimit="10" stroke-linecap="round"
                  stroke-linejoin="round"/>
        </g>
    </symbol>
    <symbol id="icon-pen" viewBox="0 0 24 24">
        <g fill="none">
            <path d="M13.2633 5.43908L5.05327 14.1291C4.74327 14.4591 4.44327 15.1091 4.38327 15.5591L4.01327 18.7991C3.88327 19.9691 4.72327 20.7691 5.88327 20.5691L9.10327 20.0191C9.55327 19.9391 10.1833 19.6091 10.4933 19.2691L18.7033 10.5791C20.1233 9.07908 20.7633 7.36908 18.5533 5.27908C16.3533 3.20908 14.6833 3.93908 13.2633 5.43908Z"
                  stroke="#888888" stroke-width="1.5" stroke-miterlimit="10" stroke-linecap="round"
                  stroke-linejoin="round"/>
            <path d="M11.8931 6.88867C12.3231 9.64867 14.5631 11.7587 17.3431 12.0387" stroke="#888888"
                  stroke-width="1.5" stroke-miterlimit="10" stroke-linecap="round" stroke-linejoin="round"/>
        </g>
    </symbol>
    <symbol id="icon-phone" viewBox="0 0 24 24">
        <g fill="none">
            <path d="M21.97 18.33C21.97 18.69 21.89 19.06 21.72 19.42C21.55 19.78 21.33 20.12 21.04 20.44C20.55 20.98 20.01 21.37 19.4 21.62C18.8 21.87 18.15 22 17.45 22C16.43 22 15.34 21.76 14.19 21.27C13.04 20.78 11.89 20.12 10.75 19.29C9.6 18.45 8.51 17.52 7.47 16.49C6.44 15.45 5.51 14.36 4.68 13.22C3.86 12.08 3.2 10.94 2.72 9.81C2.24 8.67 2 7.58 2 6.54C2 5.86 2.12 5.21 2.36 4.61C2.6 4 2.98 3.44 3.51 2.94C4.15 2.31 4.85 2 5.59 2C5.87 2 6.15 2.06 6.4 2.18C6.66 2.3 6.89 2.48 7.07 2.74L9.39 6.01C9.57 6.26 9.7 6.49 9.79 6.71C9.88 6.92 9.93 7.13 9.93 7.32C9.93 7.56 9.86 7.8 9.72 8.03C9.59 8.26 9.4 8.5 9.16 8.74L8.4 9.53C8.29 9.64 8.24 9.77 8.24 9.93C8.24 10.01 8.25 10.08 8.27 10.16C8.3 10.24 8.33 10.3 8.35 10.36C8.53 10.69 8.84 11.12 9.28 11.64C9.73 12.16 10.21 12.69 10.73 13.22C11.27 13.75 11.79 14.24 12.32 14.69C12.84 15.13 13.27 15.43 13.61 15.61C13.66 15.63 13.72 15.66 13.79 15.69C13.87 15.72 13.95 15.73 14.04 15.73C14.21 15.73 14.34 15.67 14.45 15.56L15.21 14.81C15.46 14.56 15.7 14.37 15.93 14.25C16.16 14.11 16.39 14.04 16.64 14.04C16.83 14.04 17.03 14.08 17.25 14.17C17.47 14.26 17.7 14.39 17.95 14.56L21.26 16.91C21.52 17.09 21.7 17.3 21.81 17.55C21.91 17.8 21.97 18.05 21.97 18.33Z"
                  stroke="#194A91" stroke-width="2" stroke-miterlimit="10"/>
        </g>
    </symbol>
    <symbol id="icon-pin" viewBox="0 0 26 28">
        <g fill="none">
            <path d="M22.3385 9.37026C21.201 4.24709 16.8352 1.94055 13.0002 1.94055C13.0002 1.94055 13.0002 1.94055 12.9893 1.94055C9.16516 1.94055 4.78849 4.236 3.65099 9.35917C2.4051 14.9836 8.03443 28 13.0002 28C17.9558 28 23.5821 14.9842 22.3385 9.37026Z"
                  fill="currentColor"/>
            <path d="M12.9999 14.926C14.8846 14.926 16.4124 13.3621 16.4124 11.4329C16.4124 9.50372 14.8846 7.93982 12.9999 7.93982C11.1152 7.93982 9.5874 9.50372 9.5874 11.4329C9.5874 13.3621 11.1152 14.926 12.9999 14.926Z"
                  fill="#F8F8F8"/>
        </g>
    </symbol>
    <symbol id="icon-rubin" viewBox="0 0 104 20">
        <g fill="none">
            <path fill-rule="evenodd" clip-rule="evenodd"
                  d="M4.33139 2.53494C4.74749 2.28337 5.1982 2.14453 5.57978 2.14453H6.79012L5.17822 7.02776H0.824219C0.849606 6.77378 0.912213 6.53291 1.0108 6.31838C1.3181 5.95177 1.64104 5.5141 1.96017 5.08159L1.96017 5.08158L1.96017 5.08158C2.17608 4.78897 2.39024 4.49872 2.59664 4.23443C3.15724 3.51661 3.71864 2.9054 4.33139 2.53494ZM6.34803 7.02776L7.95993 2.14453H12.03L13.6419 7.02776H6.34803ZM14.8117 7.02776L13.1998 2.14453H14.4101C14.7916 2.14453 15.2425 2.28334 15.6601 2.53524C16.2754 2.90638 16.8385 3.51724 17.4001 4.23435C17.6083 4.50026 17.8248 4.79292 18.0429 5.08796L18.0429 5.08798C18.3611 5.51823 18.683 5.95355 18.9888 6.31835C19.0872 6.53266 19.1493 6.77351 19.1739 7.02776H14.8117ZM14.7838 8.13862H19.0536C18.9223 8.55568 18.6994 8.92716 18.4112 9.19111C18.393 9.20775 18.3759 9.22558 18.3601 9.24449L11.6321 17.2929C11.4117 17.4858 11.1567 17.6327 10.8828 17.7321L14.7838 8.13862ZM13.5847 8.13862L9.99498 16.9663L6.40524 8.13862H13.5847ZM0.941791 8.13862H5.20605L9.1055 17.7279C8.83586 17.6287 8.58487 17.4831 8.36758 17.2929L1.6395 9.24449C1.62307 9.22484 1.60531 9.20635 1.58633 9.18916C1.2956 8.92568 1.07244 8.55504 0.941791 8.13862Z"
                  fill="white"/>
            <path d="M35.06 3H28.84L26.04 17H30.76L31.44 13.56H33.86C38.16 13.56 40.94 11.18 40.94 7.64C40.94 4.72 38.82 3 35.06 3ZM34.1 9.92H32.16L32.82 6.64H34.4C35.48 6.64 36.16 7.06 36.16 8.06C36.16 9.24 35.4 9.92 34.1 9.92ZM52.6355 3L48.5755 8.82L46.9755 3H42.0955L45.4355 12.6C44.8355 13.28 44.1955 13.64 43.3155 13.64C42.9555 13.64 42.5555 13.58 42.1155 13.46L40.6155 16.76C41.5555 17.16 42.4755 17.36 43.3955 17.36C45.6355 17.36 47.7555 16.14 49.5555 13.7L57.2955 3H52.6355ZM55.4955 17H62.8755C67.1355 17 69.7955 15.08 69.7955 12C69.7955 9.56 68.1355 8.18 65.2355 8.18H61.8955L62.2155 6.56H69.7155L70.4355 3H58.2955L55.4955 17ZM60.7955 13.7L61.2355 11.46H63.6555C64.5355 11.46 64.9555 11.76 64.9555 12.38C64.9555 13.18 64.2755 13.7 63.2155 13.7H60.7955ZM70.4759 17H74.9959L81.2559 9.74L79.7359 17H84.3759L87.1759 3H82.6759L76.4159 10.28L77.9159 3H73.2759L70.4759 17ZM98.7427 3L97.7427 7.96H93.3827L94.3827 3H89.6627L86.8627 17H91.5827L92.6227 11.84H96.9827L95.9427 17H100.663L103.463 3H98.7427Z"
                  fill="white"/>
        </g>
    </symbol>
    <symbol id="icon-ruby" viewBox="0 0 32 32">
        <g fill="none">
            <path fill-rule="evenodd" clip-rule="evenodd"
                  d="M6.75802 3.77074C7.46321 3.34438 8.24337 3.09802 8.92786 3.09802H11.3253L8.5263 11.5777H0.96582C0.976749 10.9897 1.09903 10.4224 1.3342 9.92853C1.8296 9.341 2.34115 8.64731 2.85431 7.95144L2.85432 7.95142C3.20103 7.48126 3.54848 7.01009 3.89218 6.57C4.79377 5.41556 5.72287 4.39659 6.75802 3.77074ZM9.69611 11.5777L12.4952 3.09802H19.4892L22.2881 11.5777H9.69611ZM23.458 11.5777L20.659 3.09802H23.0564C23.7408 3.09802 24.5211 3.34435 25.2285 3.77104C26.2677 4.39783 27.1993 5.41605 28.1027 6.5695C28.4496 7.01243 28.8006 7.48731 29.1508 7.96117L29.1509 7.96132C29.6624 8.65349 30.1723 9.34347 30.6656 9.92851C30.9005 10.422 31.0214 10.9893 31.0307 11.5777H23.458ZM23.4301 12.6886H30.9188C30.7259 13.5762 30.2932 14.3929 29.6831 14.9516C29.665 14.9682 29.6479 14.986 29.6321 15.0049L18.8509 27.902C18.284 28.4049 17.5872 28.7295 16.8502 28.8699L23.4301 12.6886ZM22.2309 12.6886L15.9922 28.0308L9.75332 12.6886H22.2309ZM1.07494 12.6886H8.55413L15.1329 28.8667C14.402 28.7246 13.7116 28.4011 13.149 27.902L2.36772 15.0049C2.3513 14.9853 2.33353 14.9668 2.31456 14.9496C1.69859 14.3914 1.26602 13.5757 1.07494 12.6886Z"
                  fill="currentColor"/>
        </g>
    </symbol>
    <symbol id="icon-setting" viewBox="0 0 24 24">
        <g fill="none">
            <path d="M12 15C13.6569 15 15 13.6569 15 12C15 10.3431 13.6569 9 12 9C10.3431 9 9 10.3431 9 12C9 13.6569 10.3431 15 12 15Z"
                  stroke="#292D32" stroke-width="1.5" stroke-miterlimit="10" stroke-linecap="round"
                  stroke-linejoin="round"/>
            <path d="M2 12.8799V11.1199C2 10.0799 2.85 9.21994 3.9 9.21994C5.71 9.21994 6.45 7.93994 5.54 6.36994C5.02 5.46994 5.33 4.29994 6.24 3.77994L7.97 2.78994C8.76 2.31994 9.78 2.59994 10.25 3.38994L10.36 3.57994C11.26 5.14994 12.74 5.14994 13.65 3.57994L13.76 3.38994C14.23 2.59994 15.25 2.31994 16.04 2.78994L17.77 3.77994C18.68 4.29994 18.99 5.46994 18.47 6.36994C17.56 7.93994 18.3 9.21994 20.11 9.21994C21.15 9.21994 22.01 10.0699 22.01 11.1199V12.8799C22.01 13.9199 21.16 14.7799 20.11 14.7799C18.3 14.7799 17.56 16.0599 18.47 17.6299C18.99 18.5399 18.68 19.6999 17.77 20.2199L16.04 21.2099C15.25 21.6799 14.23 21.3999 13.76 20.6099L13.65 20.4199C12.75 18.8499 11.27 18.8499 10.36 20.4199L10.25 20.6099C9.78 21.3999 8.76 21.6799 7.97 21.2099L6.24 20.2199C5.33 19.6999 5.02 18.5299 5.54 17.6299C6.45 16.0599 5.71 14.7799 3.9 14.7799C2.85 14.7799 2 13.9199 2 12.8799Z"
                  stroke="#292D32" stroke-width="1.5" stroke-miterlimit="10" stroke-linecap="round"
                  stroke-linejoin="round"/>
        </g>
    </symbol>
    <symbol id="icon-sms" viewBox="0 0 24 24">
        <g fill="none">
            <path d="M17 20.5H7C4 20.5 2 19 2 15.5V8.5C2 5 4 3.5 7 3.5H17C20 3.5 22 5 22 8.5V15.5C22 19 20 20.5 17 20.5Z"
                  stroke="#194A91" stroke-width="2" stroke-miterlimit="10" stroke-linecap="round"
                  stroke-linejoin="round"/>
            <path d="M17 9L13.87 11.5C12.84 12.32 11.15 12.32 10.12 11.5L7 9" stroke="#194A91" stroke-width="2"
                  stroke-miterlimit="10" stroke-linecap="round" stroke-linejoin="round"/>
        </g>
    </symbol>
    <symbol id="icon-star" viewBox="0 0 24 24">
        <g fill="none">
            <path d="M13.7299 3.51063L15.4899 7.03063C15.7299 7.52063 16.3699 7.99062 16.9099 8.08063L20.0999 8.61062C22.1399 8.95062 22.6199 10.4306 21.1499 11.8906L18.6699 14.3706C18.2499 14.7906 18.0199 15.6006 18.1499 16.1806L18.8599 19.2506C19.4199 21.6806 18.1299 22.6206 15.9799 21.3506L12.9899 19.5806C12.4499 19.2606 11.5599 19.2606 11.0099 19.5806L8.01991 21.3506C5.87991 22.6206 4.57991 21.6706 5.13991 19.2506L5.84991 16.1806C5.97991 15.6006 5.74991 14.7906 5.32991 14.3706L2.84991 11.8906C1.38991 10.4306 1.85991 8.95062 3.89991 8.61062L7.08991 8.08063C7.61991 7.99062 8.25991 7.52063 8.49991 7.03063L10.2599 3.51063C11.2199 1.60063 12.7799 1.60063 13.7299 3.51063Z"
                  fill="#E7342C"/>
        </g>
    </symbol>
    <symbol id="icon-task" viewBox="0 0 44 44">
        <g fill="none">
            <path d="M29.682 3.66675H14.3187C7.64533 3.66675 3.66699 7.64508 3.66699 14.3184V29.6817C3.66699 36.3551 7.64533 40.3334 14.3187 40.3334H29.682C36.3553 40.3334 40.3337 36.3551 40.3337 29.6817V14.3184C40.3337 7.64508 36.3553 3.66675 29.682 3.66675ZM18.2787 27.3167L14.1537 31.4417C13.8787 31.7167 13.5303 31.8451 13.182 31.8451C12.8337 31.8451 12.467 31.7167 12.2103 31.4417L10.8353 30.0667C10.2853 29.5351 10.2853 28.6551 10.8353 28.1234C11.367 27.5917 12.2287 27.5917 12.7787 28.1234L13.182 28.5267L16.3353 25.3734C16.867 24.8417 17.7287 24.8417 18.2787 25.3734C18.8103 25.9051 18.8103 26.7851 18.2787 27.3167ZM18.2787 14.4834L14.1537 18.6084C13.8787 18.8834 13.5303 19.0117 13.182 19.0117C12.8337 19.0117 12.467 18.8834 12.2103 18.6084L10.8353 17.2334C10.2853 16.7017 10.2853 15.8217 10.8353 15.2901C11.367 14.7584 12.2287 14.7584 12.7787 15.2901L13.182 15.6934L16.3353 12.5401C16.867 12.0084 17.7287 12.0084 18.2787 12.5401C18.8103 13.0717 18.8103 13.9517 18.2787 14.4834ZM32.1937 30.4701H22.5687C21.817 30.4701 21.1937 29.8467 21.1937 29.0951C21.1937 28.3434 21.817 27.7201 22.5687 27.7201H32.1937C32.9637 27.7201 33.5687 28.3434 33.5687 29.0951C33.5687 29.8467 32.9637 30.4701 32.1937 30.4701ZM32.1937 17.6367H22.5687C21.817 17.6367 21.1937 17.0134 21.1937 16.2617C21.1937 15.5101 21.817 14.8867 22.5687 14.8867H32.1937C32.9637 14.8867 33.5687 15.5101 33.5687 16.2617C33.5687 17.0134 32.9637 17.6367 32.1937 17.6367Z"
                  fill="#222222"/>
        </g>
    </symbol>
    <symbol id="icon-teboil-bg" viewBox="0 0 344 94">
        <g fill="none">
            <path d="M0 0V94H323.276L344 0H0Z" fill="#E7332B"/>
            <path fill-rule="evenodd" clip-rule="evenodd"
                  d="M100.063 36.347H88.6777L91.1804 26.2146H124.952L122.482 36.347H111.392L103.908 66.4083H92.6604L100.063 36.347Z"
                  fill="#F8F8F8"/>
            <path fill-rule="evenodd" clip-rule="evenodd"
                  d="M129.557 26.2146H163.046L160.555 36.347H137.971L136.536 41.8874H156.431L154.022 50.8398H134.316L133.035 56.2993H155.607L153.246 66.443H119.559L129.557 26.2146Z"
                  fill="#F8F8F8"/>
            <path fill-rule="evenodd" clip-rule="evenodd"
                  d="M264.685 26.2146H275.764L268.457 56.2993H284.683L282.168 66.4545H254.828L264.685 26.2146Z"
                  fill="#F8F8F8"/>
            <path fill-rule="evenodd" clip-rule="evenodd"
                  d="M239.55 66.4083L249.422 26.2146H260.832L250.947 66.3621L239.55 66.4083Z" fill="#F8F8F8"/>
            <path fill-rule="evenodd" clip-rule="evenodd"
                  d="M176.453 35.9188L175.102 41.5057H184.677C187.402 41.5288 188.226 40.3026 188.425 38.8683C188.626 37.2723 187.486 35.9188 186.286 35.9188H176.453ZM192.233 26.2262C195.181 26.2839 197.425 27.4639 199.025 29.2914C203.82 34.5772 200.364 44.7557 191.716 45.4267C191.493 45.4383 199.037 46.4213 196.956 55.9174C195.876 60.9491 191.153 66.4314 184.337 66.4314L157.604 66.4545L167.486 26.2146L192.233 26.2262ZM172.858 50.7009L171.492 56.2993H181.082C183.807 56.3109 184.632 55.0963 184.83 53.6504C185.029 52.0544 183.889 50.7009 182.691 50.7009H172.858Z"
                  fill="#F8F8F8"/>
            <path fill-rule="evenodd" clip-rule="evenodd"
                  d="M212.643 45.9704C210.811 52.4011 212.08 56.681 218.355 56.681C223.135 56.681 227.566 55.212 229.774 46.0396C231.16 40.0136 230.303 35.8149 224.218 35.9073C221.619 35.9769 215.194 35.4563 212.643 45.9704ZM227.003 25.0115C241.854 24.7572 243.945 36.8906 240.891 47.1385C236.695 64.1991 228.552 67.5072 215.756 67.5072C201.528 67.5072 199.555 57.3979 201.176 46.3751C205.345 26.7352 215.675 25.1042 225.039 25.0115L226.11 25L227.003 25.0115Z"
                  fill="#F8F8F8"/>
        </g>
    </symbol>
    <symbol id="icon-tebonus" viewBox="0 0 151 24">
        <g fill="none">
            <path d="M0 5.42966L0.86692 0.319392H21.1711L20.3042 5.42966H13.2776L10.2662 23.6806H4.01521L7.02662 5.42966H0Z"
                  fill="white"/>
            <path d="M19.0372 23.6806L22.9156 0.319392H39.7521L38.8851 5.42966H28.3908L27.7521 9.44487H37.3794L36.5125 14.5551H26.8851L26.2464 18.5703H36.695L35.8281 23.6806H19.0372Z"
                  fill="white"/>
            <path d="M38.3767 23.6806L42.2551 0.319392H52.3843C54.1638 0.319392 55.6201 0.558936 56.7532 1.03802C57.8938 1.51711 58.6999 2.19392 59.1714 3.06844C59.6505 3.94297 59.7912 4.97338 59.5935 6.1597C59.4414 7.01141 59.1144 7.79088 58.6125 8.4981C58.1182 9.19772 57.4908 9.79088 56.7303 10.2776C55.9775 10.7567 55.1372 11.0875 54.2094 11.27L54.1638 11.4981C55.1676 11.5285 56.0421 11.7795 56.7874 12.251C57.5326 12.7148 58.0802 13.3612 58.43 14.1901C58.7798 15.0114 58.8634 15.9696 58.6809 17.0646C58.468 18.3422 57.9471 19.4791 57.1182 20.4753C56.2893 21.4715 55.2132 22.2548 53.89 22.8251C52.5668 23.3954 51.0611 23.6806 49.3729 23.6806H38.3767ZM45.5859 18.616H48.5516C49.6011 18.616 50.4262 18.4144 51.0269 18.0114C51.6353 17.6084 51.9965 17.019 52.1106 16.2433C52.2018 15.6958 52.1562 15.2319 51.9737 14.8517C51.7912 14.4715 51.4832 14.1825 51.0497 13.9848C50.6163 13.7871 50.0725 13.6882 49.4186 13.6882H46.3615L45.5859 18.616ZM47.0459 9.76426H49.6467C50.1942 9.76426 50.6961 9.67681 51.1524 9.5019C51.6087 9.327 51.9851 9.07224 52.2817 8.73764C52.5783 8.40304 52.7646 8 52.8406 7.52852C52.9547 6.79848 52.7798 6.24335 52.3159 5.86312C51.8596 5.48289 51.2436 5.29278 50.468 5.29278H47.776L47.0459 9.76426Z"
                  fill="white"/>
            <path d="M83.6925 12.4106C83.2666 14.9506 82.4225 17.0798 81.1601 18.7985C79.8978 20.5171 78.3655 21.8137 76.5632 22.6882C74.7609 23.5627 72.8332 24 70.7799 24C68.5898 24 66.6887 23.5247 65.0765 22.5741C63.4643 21.6236 62.2894 20.2319 61.5518 18.3992C60.8141 16.5665 60.6659 14.327 61.1069 11.6806C61.5176 9.14069 62.3541 7.0038 63.6164 5.26996C64.8788 3.53612 66.4187 2.22434 68.2362 1.3346C70.0537 0.444867 71.9967 0 74.0651 0C76.24 0 78.1297 0.479087 79.7343 1.43726C81.3465 2.39544 82.5176 3.79848 83.2476 5.64639C83.9852 7.4943 84.1335 9.74905 83.6925 12.4106ZM77.3046 11.6806C77.5176 10.3422 77.5328 9.21673 77.3503 8.30418C77.1678 7.38403 76.7837 6.69202 76.1982 6.22814C75.6126 5.75665 74.8255 5.52091 73.837 5.52091C72.7115 5.52091 71.7153 5.79468 70.8484 6.34221C69.9814 6.88973 69.2628 7.67681 68.6925 8.70342C68.1221 9.73004 67.7229 10.9658 67.4948 12.4106C67.2514 13.7643 67.2286 14.8897 67.4263 15.7871C67.6316 16.6844 68.0347 17.3574 68.6354 17.8061C69.2438 18.2548 70.0347 18.4791 71.0081 18.4791C72.1183 18.4791 73.0993 18.2129 73.951 17.6806C74.8103 17.1483 75.5214 16.3764 76.0841 15.365C76.6544 14.3536 77.0613 13.1255 77.3046 11.6806Z"
                  fill="white"/>
            <path d="M108.205 0.319392L104.327 23.6806H99.0339L92.646 11.4068H92.5092L90.4559 23.6806H84.1137L87.9921 0.319392H93.3761L99.6727 12.5475H99.8552L101.863 0.319392H108.205Z"
                  fill="white"/>
            <path d="M124.388 0.319392H130.73L128.243 15.2852C127.954 17.0646 127.277 18.6046 126.213 19.9049C125.156 21.1977 123.81 22.1977 122.175 22.9049C120.54 23.6046 118.722 23.9544 116.722 23.9544C114.707 23.9544 113.004 23.6046 111.612 22.9049C110.22 22.1977 109.209 21.1977 108.578 19.9049C107.954 18.6046 107.787 17.0646 108.076 15.2852L110.563 0.319392H116.905L114.509 14.7376C114.395 15.4601 114.452 16.1027 114.68 16.6654C114.909 17.2281 115.277 17.673 115.787 18C116.296 18.3194 116.912 18.4791 117.635 18.4791C118.365 18.4791 119.038 18.3194 119.654 18C120.277 17.673 120.794 17.2281 121.205 16.6654C121.616 16.1027 121.878 15.4601 121.992 14.7376L124.388 0.319392Z"
                  fill="white"/>
            <path d="M144.463 7.61977C144.531 6.86692 144.349 6.27757 143.915 5.85171C143.482 5.41825 142.752 5.20152 141.725 5.20152C141.071 5.20152 140.524 5.27757 140.083 5.42966C139.649 5.58175 139.311 5.79087 139.067 6.05703C138.832 6.32319 138.683 6.63118 138.623 6.98099C138.554 7.25475 138.558 7.5057 138.634 7.73384C138.718 7.95437 138.874 8.15589 139.102 8.3384C139.337 8.52091 139.645 8.68441 140.026 8.8289C140.413 8.97338 140.874 9.10266 141.406 9.21673L143.231 9.62738C144.478 9.90114 145.524 10.2624 146.368 10.711C147.22 11.1521 147.889 11.6768 148.375 12.2852C148.862 12.8935 149.182 13.5741 149.334 14.327C149.493 15.0798 149.497 15.9011 149.345 16.7909C149.086 18.327 148.49 19.6274 147.554 20.692C146.619 21.7567 145.398 22.5665 143.893 23.1217C142.387 23.6768 140.645 23.9544 138.668 23.9544C136.645 23.9544 134.927 23.654 133.512 23.0532C132.105 22.4449 131.086 21.5171 130.455 20.27C129.832 19.0152 129.68 17.4144 129.999 15.4677H136.022C135.931 16.1825 136.007 16.7833 136.25 17.27C136.493 17.7567 136.885 18.1255 137.425 18.3764C137.965 18.6274 138.638 18.7529 139.444 18.7529C140.128 18.7529 140.714 18.6692 141.201 18.5019C141.687 18.3346 142.071 18.1027 142.353 17.8061C142.634 17.5095 142.805 17.1711 142.866 16.7909C142.927 16.4411 142.866 16.1293 142.683 15.8555C142.501 15.5817 142.17 15.3346 141.691 15.1141C141.212 14.8935 140.554 14.692 139.718 14.5095L137.482 14.0076C135.497 13.5513 133.999 12.7985 132.988 11.7491C131.976 10.6996 131.619 9.26236 131.915 7.43726C132.159 5.94677 132.771 4.64639 133.752 3.53612C134.74 2.41825 135.995 1.55133 137.516 0.935361C139.045 0.311787 140.737 0 142.592 0C144.478 0 146.056 0.315589 147.326 0.946768C148.604 1.57795 149.52 2.46388 150.075 3.60456C150.638 4.74525 150.79 6.08365 150.531 7.61977H144.463Z"
                  fill="white"/>
        </g>
    </symbol>
    <symbol id="icon-tick2" viewBox="0 0 12 12">
        <g fill="none">
            <path d="M3 5.88667L4.88667 7.77333L8.66667 4" stroke="currentColor" stroke-width="1.5"
                  stroke-linecap="round" stroke-linejoin="round"/>
        </g>
    </symbol>
    <symbol id="icon-tick3" viewBox="0 0 11 8">
        <g fill="none">
            <path d="M1 4.75L3.25 7L9.25 1" stroke="currentColor" stroke-width="2" stroke-linecap="round"
                  stroke-linejoin="round"/>
        </g>
    </symbol>
    <symbol id="loader" viewBox="0 0 32 32">
        <g fill="none">
            <path d="M30.5 16C30.5 13.7118 29.9584 11.456 28.9196 9.41714C27.8808 7.3783 26.3741 5.61426 24.5229 4.26926"
                  stroke="#004798" stroke-width="3" stroke-linecap="round"/>
        </g>
    </symbol>
    <symbol id="logo-teboil" viewBox="0 0 78 32">
        <g fill="none">
            <rect width="78" height="32" rx="16" fill="#E7342C"/>
            <path fill-rule="evenodd" clip-rule="evenodd"
                  d="M14.2529 13.2033H11L11.715 10.3429H21.3638L20.6582 13.2033H17.4895L15.3513 21.6898H12.1379L14.2529 13.2033Z"
                  fill="white"/>
            <path fill-rule="evenodd" clip-rule="evenodd"
                  d="M22.6796 10.3429H32.2475L31.5359 13.2033H25.0834L24.6734 14.7674H30.3577L29.6693 17.2947H24.0392L23.6731 18.836H30.1222L29.4475 21.6996H19.8229L22.6796 10.3429Z"
                  fill="white"/>
            <path fill-rule="evenodd" clip-rule="evenodd"
                  d="M61.2866 10.3429H64.4518L62.3643 18.836H67L66.2815 21.7028H58.4702L61.2866 10.3429Z" fill="white"/>
            <path fill-rule="evenodd" clip-rule="evenodd"
                  d="M54.1051 21.6898L56.9257 10.3429H60.1855L57.3615 21.6768L54.1051 21.6898Z" fill="white"/>
            <path fill-rule="evenodd" clip-rule="evenodd"
                  d="M36.0779 13.0824L35.692 14.6596H38.4275C39.2062 14.6662 39.4417 14.32 39.4984 13.9151C39.556 13.4645 39.2302 13.0824 38.8873 13.0824H36.0779ZM40.5864 10.3462C41.4286 10.3625 42.0698 10.6956 42.527 11.2115C43.8969 12.7037 42.9094 15.5772 40.4386 15.7666C40.375 15.7698 42.5304 16.0474 41.9357 18.7281C41.6272 20.1486 40.2779 21.6963 38.3304 21.6963L30.6927 21.7028L33.5159 10.3429L40.5864 10.3462ZM35.0509 17.2555L34.6607 18.836H37.4005C38.1792 18.8392 38.4146 18.4963 38.4714 18.0882C38.5281 17.6376 38.2024 17.2555 37.8603 17.2555H35.0509Z"
                  fill="white"/>
            <path fill-rule="evenodd" clip-rule="evenodd"
                  d="M46.4176 15.92C45.8942 17.7355 46.2569 18.9437 48.0497 18.9437C49.4153 18.9437 50.6812 18.529 51.312 15.9396C51.7082 14.2384 51.4633 13.0531 49.7247 13.0792C48.9821 13.0988 47.1464 12.9519 46.4176 15.92ZM50.5205 10.0033C54.7635 9.93146 55.3608 13.3568 54.4885 16.2498C53.2896 21.0661 50.9631 22 47.3071 22C43.2421 22 42.6783 19.1461 43.1415 16.0343C44.3327 10.4898 47.2839 10.0294 49.9593 10.0033L50.2653 10L50.5205 10.0033Z"
                  fill="white"/>
        </g>
    </symbol>
    <symbol id="star-default" viewBox="0 0 44 44">
        <g fill="none">
            <rect width="44" height="44" rx="22" fill="#F8F8F8"/>
            <path d="M23.7299 13.5096L25.4899 17.0296C25.7299 17.5196 26.3699 17.9896 26.9099 18.0796L30.0999 18.6096C32.1399 18.9496 32.6199 20.4296 31.1499 21.8896L28.6699 24.3696C28.2499 24.7896 28.0199 25.5996 28.1499 26.1796L28.8599 29.2496C29.4199 31.6796 28.1299 32.6196 25.9799 31.3496L22.9899 29.5796C22.4499 29.2596 21.5599 29.2596 21.0099 29.5796L18.0199 31.3496C15.8799 32.6196 14.5799 31.6696 15.1399 29.2496L15.8499 26.1796C15.9799 25.5996 15.7499 24.7896 15.3299 24.3696L12.8499 21.8896C11.3899 20.4296 11.8599 18.9496 13.8999 18.6096L17.0899 18.0796C17.6199 17.9896 18.2599 17.5196 18.4999 17.0296L20.2599 13.5096C21.2199 11.5996 22.7799 11.5996 23.7299 13.5096Z"
                  fill="currentColor"/>
        </g>
    </symbol>
    <symbol id="teboil" viewBox="0 0 114 25">
        <g fill="none">
            <path fill-rule="evenodd" clip-rule="evenodd"
                  d="M6.62201 6.67357H0L1.45561 0.71436H21.0977L19.6613 6.67357H13.2108L8.85792 24.3537H2.31637L6.62201 6.67357Z"
                  fill="#F8F8F8"/>
            <path fill-rule="evenodd" clip-rule="evenodd"
                  d="M23.7763 0.71436H43.2539L41.8053 6.67357H28.6698L27.8352 9.93208H39.4067L38.0053 15.1973H26.5441L25.7988 18.4083H38.9273L37.5539 24.3741H17.9608L23.7763 0.71436Z"
                  fill="#F8F8F8"/>
            <path fill-rule="evenodd" clip-rule="evenodd"
                  d="M102.369 0.71436H108.813L104.563 18.4083H114L112.537 24.3809H96.6358L102.369 0.71436Z" fill="#F8F8F8"/>
            <path fill-rule="evenodd" clip-rule="evenodd"
                  d="M87.7497 24.3537L93.4917 0.71436H100.128L94.3787 24.3266L87.7497 24.3537Z" fill="#F8F8F8"/>
            <path fill-rule="evenodd" clip-rule="evenodd"
                  d="M51.0514 6.42175L50.2659 9.7076H55.8346C57.4197 9.72119 57.8991 9.00003 58.0146 8.15645C58.1318 7.21779 57.4687 6.42175 56.7706 6.42175H51.0514ZM60.2295 0.721152C61.944 0.755112 63.2492 1.4491 64.1799 2.52395C66.9687 5.63268 64.9585 11.6191 59.9286 12.0137C59.7991 12.0205 64.1869 12.5987 62.9763 18.1836C62.3482 21.1429 59.6014 24.3673 55.6369 24.3673L40.0888 24.3809L45.836 0.71436L60.2295 0.721152ZM48.9607 15.1156L48.1664 18.4083H53.7439C55.329 18.4151 55.8084 17.7007 55.9239 16.8503C56.0393 15.9117 55.3763 15.1156 54.6799 15.1156H48.9607Z"
                  fill="#F8F8F8"/>
            <path fill-rule="evenodd" clip-rule="evenodd"
                  d="M72.1002 12.3334C71.0347 16.1156 71.773 18.6328 75.4225 18.6328C78.2026 18.6328 80.7796 17.7688 82.0638 12.3742C82.8703 8.83006 82.3717 6.36063 78.8324 6.41496C77.3208 6.45589 73.5838 6.14973 72.1002 12.3334ZM80.4525 0.00679274C89.0899 -0.142801 90.3059 6.99331 88.5301 13.0204C86.0895 23.0544 81.3535 25 73.9109 25C65.6356 25 64.4879 19.0544 65.4309 12.5715C67.8558 1.02051 73.8637 0.0613015 79.31 0.00679274L79.9329 0L80.4525 0.00679274Z"
                  fill="#F8F8F8"/>
        </g>
    </symbol>
    <symbol id="logo-teboil-rect" viewBox="0 0 124 32">
        <g clip-path="url(#clip0_1042_18908)">
            <path fill-rule="evenodd" clip-rule="evenodd" d="M0 0H124V32H0V0Z" fill="#E7342C"/>
            <path fill-rule="evenodd" clip-rule="evenodd"
                  d="M14.068 10.0135H7.80066L9.17831 4.3286H27.7683L26.4089 10.0135H20.3038L16.1841 26.8798H9.99296L14.068 10.0135Z"
                  fill="white"/>
            <path fill-rule="evenodd" clip-rule="evenodd"
                  d="M30.3048 4.32861H48.7391L47.3681 10.0135H34.9361L34.1463 13.122H45.0979L43.7716 18.1449H32.9243L32.2189 21.208H44.6442L43.3444 26.8992H24.8008L30.3048 4.32861Z"
                  fill="white"/>
            <path fill-rule="evenodd" clip-rule="evenodd"
                  d="M104.688 4.32861H110.786L106.764 21.208H115.696L114.312 26.9057H99.2617L104.688 4.32861Z"
                  fill="white"/>
            <path fill-rule="evenodd" clip-rule="evenodd"
                  d="M90.8516 26.8798L96.286 4.32861H102.567L97.1255 26.8539L90.8516 26.8798Z" fill="white"/>
            <path fill-rule="evenodd" clip-rule="evenodd"
                  d="M56.1177 9.77327L55.3743 12.9079H60.6448C62.1449 12.9208 62.5986 12.2329 62.7079 11.4281C62.8189 10.5327 62.1913 9.77327 61.5306 9.77327H56.1177ZM64.8042 4.33508C66.4269 4.36747 67.6622 5.02951 68.5431 6.05488C71.1825 9.02052 69.2799 14.7313 64.5194 15.1078C64.3969 15.1143 68.5497 15.6658 67.4039 20.9937C66.8094 23.8168 64.2098 26.8928 60.4577 26.8928L45.7423 26.9057L51.1817 4.3286L64.8042 4.33508ZM54.139 18.0669L53.3873 21.208H58.666C60.1662 21.2145 60.6199 20.533 60.7292 19.7218C60.8385 18.8263 60.2109 18.0669 59.5519 18.0669H54.139Z"
                  fill="white"/>
            <path fill-rule="evenodd" clip-rule="evenodd"
                  d="M76.039 15.4128C75.0306 19.0209 75.7293 21.4222 79.1834 21.4222C81.8145 21.4222 84.2535 20.598 85.4689 15.4517C86.2322 12.0707 85.7603 9.71494 82.4106 9.76678C80.98 9.80582 77.4431 9.51376 76.039 15.4128ZM83.9439 3.65359C92.1187 3.51088 93.2695 10.3185 91.5889 16.0682C89.279 25.6403 84.7966 27.4963 77.7528 27.4963C69.9207 27.4963 68.8345 21.8244 69.727 15.6399C72.0219 4.62065 77.708 3.70559 82.8626 3.65359L83.4521 3.64711L83.9439 3.65359Z"
                  fill="white"/>
        </g>
        <defs>
            <clipPath id="clip0_1042_18908">
                <rect width="124" height="32" fill="white"/>
            </clipPath>
        </defs>
    </symbol>
</svg>